<?xml version="1.0" encoding="UTF-8" standalone="no"?>
<!DOCTYPE svg PUBLIC "-//W3C//DTD SVG 1.1//EN"
 "http://www.w3.org/Graphics/SVG/1.1/DTD/svg11.dtd">
<!-- Generated by graphviz version 2.40.1 (20161225.0304)
 -->
<!-- Title: dependencies Pages: 1 -->
<svg width="1057pt" height="284pt"
 viewBox="0.00 0.00 1057.00 284.00" xmlns="http://www.w3.org/2000/svg" xmlns:xlink="http://www.w3.org/1999/xlink">
<g id="graph0" class="graph" transform="scale(1 1) rotate(0) translate(4 280)">
<title>dependencies</title>
<polygon fill="#ffffff" stroke="transparent" points="-4,4 -4,-280 1053,-280 1053,4 -4,4"/>
<text text-anchor="start" x="503.5091" y="-42.4" font-family="sans-serif" font-weight="bold" font-size="14.00" fill="#000000">Legend</text>
<polygon fill="#ffffb3" stroke="transparent" points="290.5,-10 290.5,-30 310.5,-30 310.5,-10 290.5,-10"/>
<text text-anchor="start" x="314.129" y="-15.4" font-family="sans-serif" font-size="14.00" fill="#000000"> &#160;Declarations</text>
<polygon fill="#8dd3c7" stroke="transparent" points="403.5,-10 403.5,-30 423.5,-30 423.5,-10 403.5,-10"/>
<text text-anchor="start" x="427.2251" y="-15.4" font-family="sans-serif" font-size="14.00" fill="#000000"> &#160;Module</text>
<polygon fill="#80b1d3" stroke="transparent" points="489.5,-10 489.5,-30 509.5,-30 509.5,-10 489.5,-10"/>
<text text-anchor="start" x="513.2812" y="-15.4" font-family="sans-serif" font-size="14.00" fill="#000000"> &#160;Bootstrap</text>
<polygon fill="#fdb462" stroke="transparent" points="586.5,-10 586.5,-30 606.5,-30 606.5,-10 586.5,-10"/>
<text text-anchor="start" x="610.1732" y="-15.4" font-family="sans-serif" font-size="14.00" fill="#000000"> &#160;Providers</text>
<polygon fill="#fb8072" stroke="transparent" points="682.5,-10 682.5,-30 702.5,-30 702.5,-10 682.5,-10"/>
<text text-anchor="start" x="706.2258" y="-15.4" font-family="sans-serif" font-size="14.00" fill="#000000"> &#160;Exports</text>
<g id="clust1" class="cluster">
<title>cluster_AppModule</title>
<polygon fill="none" stroke="#000000" stroke-dasharray="1,5" points="8,-70 8,-268 1041,-268 1041,-70 8,-70"/>
</g>
<g id="clust2" class="cluster">
<title>cluster_AppModule_declarations</title>
<polygon fill="none" stroke="#000000" points="615,-78 615,-130 1033,-130 1033,-78 615,-78"/>
</g>
<g id="clust6" class="cluster">
<title>cluster_AppModule_imports</title>
<polygon fill="none" stroke="#000000" points="294,-78 294,-130 607,-130 607,-78 294,-78"/>
</g>
<g id="clust8" class="cluster">
<title>cluster_AppModule_bootstrap</title>
<polygon fill="none" stroke="#000000" points="473,-208 473,-260 597,-260 597,-208 473,-208"/>
</g>
<g id="clust9" class="cluster">
<title>cluster_AppModule_providers</title>
<polygon fill="none" stroke="#000000" points="16,-78 16,-130 286,-130 286,-78 16,-78"/>
</g>
<!-- AppComponent -->
<g id="node1" class="node">
<title>AppComponent</title>
<polygon fill="#ffffb3" stroke="#000000" points="1024.9399,-122 919.0601,-122 919.0601,-86 1024.9399,-86 1024.9399,-122"/>
<text text-anchor="middle" x="972" y="-99.8" font-family="Times,serif" font-size="14.00" fill="#000000">AppComponent</text>
</g>
<!-- AppModule -->
<g id="node4" class="node">
<title>AppModule</title>
<polygon fill="#8dd3c7" stroke="#000000" points="576.6571,-187 573.6571,-191 552.6571,-191 549.6571,-187 493.3429,-187 493.3429,-151 576.6571,-151 576.6571,-187"/>
<text text-anchor="middle" x="535" y="-164.8" font-family="Times,serif" font-size="14.00" fill="#000000">AppModule</text>
</g>
<!-- AppComponent&#45;&gt;AppModule -->
<g id="edge1" class="edge">
<title>AppComponent&#45;&gt;AppModule</title>
<path fill="none" stroke="#000000" d="M972,-122.2921C972,-144.2057 972,-178 972,-178 972,-178 586.9014,-178 586.9014,-178"/>
<polygon fill="#000000" stroke="#000000" points="586.9014,-174.5001 576.9014,-178 586.9014,-181.5001 586.9014,-174.5001"/>
</g>
<!-- IndividualComponent -->
<g id="node2" class="node">
<title>IndividualComponent</title>
<polygon fill="#ffffb3" stroke="#000000" points="901.3795,-122 762.6205,-122 762.6205,-86 901.3795,-86 901.3795,-122"/>
<text text-anchor="middle" x="832" y="-99.8" font-family="Times,serif" font-size="14.00" fill="#000000">IndividualComponent</text>
</g>
<!-- IndividualComponent&#45;&gt;AppModule -->
<g id="edge2" class="edge">
<title>IndividualComponent&#45;&gt;AppModule</title>
<path fill="none" stroke="#000000" d="M832,-122.1061C832,-141.3391 832,-169 832,-169 832,-169 586.9229,-169 586.9229,-169"/>
<polygon fill="#000000" stroke="#000000" points="586.923,-165.5001 576.9229,-169 586.9229,-172.5001 586.923,-165.5001"/>
</g>
<!-- ListingComponent -->
<g id="node3" class="node">
<title>ListingComponent</title>
<polygon fill="#ffffb3" stroke="#000000" points="744.5014,-122 623.4986,-122 623.4986,-86 744.5014,-86 744.5014,-122"/>
<text text-anchor="middle" x="684" y="-99.8" font-family="Times,serif" font-size="14.00" fill="#000000">ListingComponent</text>
</g>
<!-- ListingComponent&#45;&gt;AppModule -->
<g id="edge3" class="edge">
<title>ListingComponent&#45;&gt;AppModule</title>
<path fill="none" stroke="#000000" d="M684,-122.027C684,-138.3976 684,-160 684,-160 684,-160 586.9013,-160 586.9013,-160"/>
<polygon fill="#000000" stroke="#000000" points="586.9014,-156.5001 576.9013,-160 586.9013,-163.5001 586.9014,-156.5001"/>
</g>
<!-- AppComponent  -->
<g id="node7" class="node">
<title>AppComponent </title>
<polygon fill="#80b1d3" stroke="#000000" points="589.439,-252 480.561,-252 480.561,-216 589.439,-216 589.439,-252"/>
<text text-anchor="middle" x="535" y="-229.8" font-family="Times,serif" font-size="14.00" fill="#000000">AppComponent </text>
</g>
<!-- AppModule&#45;&gt;AppComponent  -->
<g id="edge6" class="edge">
<title>AppModule&#45;&gt;AppComponent </title>
<path fill="none" stroke="#000000" stroke-dasharray="1,5" d="M535,-187.1061C535,-187.1061 535,-205.991 535,-205.991"/>
<polygon fill="#000000" stroke="#000000" points="531.5001,-205.9909 535,-215.991 538.5001,-205.991 531.5001,-205.9909"/>
</g>
<!-- AppRoutingModule -->
<g id="node5" class="node">
<title>AppRoutingModule</title>
<polygon fill="#8dd3c7" stroke="#000000" points="599.2744,-122 596.2744,-126 575.2744,-126 572.2744,-122 470.7256,-122 470.7256,-86 599.2744,-86 599.2744,-122"/>
<text text-anchor="middle" x="535" y="-99.8" font-family="Times,serif" font-size="14.00" fill="#000000">AppRoutingModule</text>
</g>
<!-- AppRoutingModule&#45;&gt;AppModule -->
<g id="edge4" class="edge">
<title>AppRoutingModule&#45;&gt;AppModule</title>
<path fill="none" stroke="#000000" d="M535,-122.1061C535,-122.1061 535,-140.991 535,-140.991"/>
<polygon fill="#000000" stroke="#000000" points="531.5001,-140.9909 535,-150.991 538.5001,-140.991 531.5001,-140.9909"/>
</g>
<!-- CustomMaterialModule -->
<g id="node6" class="node">
<title>CustomMaterialModule</title>
<polygon fill="#8dd3c7" stroke="#000000" points="452.0337,-122 449.0337,-126 428.0337,-126 425.0337,-122 301.9663,-122 301.9663,-86 452.0337,-86 452.0337,-122"/>
<text text-anchor="middle" x="377" y="-99.8" font-family="Times,serif" font-size="14.00" fill="#000000">CustomMaterialModule</text>
</g>
<!-- CustomMaterialModule&#45;&gt;AppModule -->
<g id="edge5" class="edge">
<title>CustomMaterialModule&#45;&gt;AppModule</title>
<path fill="none" stroke="#000000" d="M377,-122.027C377,-138.3976 377,-160 377,-160 377,-160 483.0737,-160 483.0737,-160"/>
<polygon fill="#000000" stroke="#000000" points="483.0738,-163.5001 493.0737,-160 483.0737,-156.5001 483.0738,-163.5001"/>
</g>
<!-- DogService -->
<g id="node8" class="node">
<title>DogService</title>
<ellipse fill="#fdb462" stroke="#000000" cx="221" cy="-104" rx="56.7406" ry="18"/>
<text text-anchor="middle" x="221" y="-99.8" font-family="Times,serif" font-size="14.00" fill="#000000">DogService</text>
</g>
<!-- DogService&#45;&gt;AppModule -->
<g id="edge7" class="edge">
<title>DogService&#45;&gt;AppModule</title>
<path fill="none" stroke="#000000" d="M221,-122.1061C221,-141.3391 221,-169 221,-169 221,-169 483.3032,-169 483.3032,-169"/>
<polygon fill="#000000" stroke="#000000" points="483.3033,-172.5001 493.3032,-169 483.3032,-165.5001 483.3033,-172.5001"/>
</g>
<!-- PlaneService -->
<g id="node9" class="node">
<title>PlaneService</title>
<ellipse fill="#fdb462" stroke="#000000" cx="85" cy="-104" rx="61.3916" ry="18"/>
<text text-anchor="middle" x="85" y="-99.8" font-family="Times,serif" font-size="14.00" fill="#000000">PlaneService</text>
</g>
<!-- PlaneService&#45;&gt;AppModule -->
<g id="edge8" class="edge">
<title>PlaneService&#45;&gt;AppModule</title>
<path fill="none" stroke="#000000" d="M85,-122.2921C85,-144.2057 85,-178 85,-178 85,-178 483.0692,-178 483.0692,-178"/>
<polygon fill="#000000" stroke="#000000" points="483.0692,-181.5001 493.0692,-178 483.0692,-174.5001 483.0692,-181.5001"/>
</g>
</g>
</svg>
